# Blender 3.5.0
# www.blender.org
mtllib enemy_Attack_Circle.mtl
o 円
v 0.000000 0.000000 1.000000
v 0.195090 0.000000 0.980785
v 0.382683 0.000000 0.923880
v 0.555570 0.000000 0.831470
v 0.707107 0.000000 0.707107
v 0.831470 0.000000 0.555570
v 0.923880 0.000000 0.382683
v 0.980785 0.000000 0.195090
v 1.000000 0.000000 0.000000
v 0.980785 0.000000 -0.195090
v 0.923880 0.000000 -0.382683
v 0.831470 0.000000 -0.555570
v 0.707107 0.000000 -0.707107
v 0.555570 0.000000 -0.831470
v 0.382683 0.000000 -0.923880
v 0.195090 0.000000 -0.980785
v 0.000000 0.000000 -1.000000
v -0.195090 0.000000 -0.980785
v -0.382683 0.000000 -0.923880
v -0.555570 0.000000 -0.831470
v -0.707107 0.000000 -0.707107
v -0.831470 0.000000 -0.555570
v -0.923880 0.000000 -0.382683
v -0.980785 0.000000 -0.195090
v -1.000000 0.000000 0.000000
v -0.980785 0.000000 0.195090
v -0.923880 0.000000 0.382683
v -0.831470 0.000000 0.555570
v -0.707107 0.000000 0.707107
v -0.555570 0.000000 0.831470
v -0.382683 0.000000 0.923880
v -0.195090 0.000000 0.980785
vn -0.0000 1.0000 -0.0000
vt 0.000000 0.450754
vt 0.019215 0.354155
vt 0.056906 0.263161
vt 0.111625 0.181268
vt 0.181269 0.111625
vt 0.263161 0.056906
vt 0.354155 0.019215
vt 0.450754 0.000000
vt 0.549246 0.000000
vt 0.645845 0.019215
vt 0.736839 0.056906
vt 0.818731 0.111625
vt 0.888375 0.181269
vt 0.943094 0.263161
vt 0.980785 0.354155
vt 1.000000 0.450754
vt 1.000000 0.549246
vt 0.980785 0.645845
vt 0.943094 0.736839
vt 0.888375 0.818731
vt 0.818731 0.888375
vt 0.736839 0.943094
vt 0.645845 0.980785
vt 0.549246 1.000000
vt 0.450754 1.000000
vt 0.354155 0.980785
vt 0.263161 0.943094
vt 0.181268 0.888375
vt 0.111625 0.818731
vt 0.056906 0.736839
vt 0.019215 0.645845
vt 0.000000 0.549246
s 0
usemtl マテリアル.001
f 17/17/1 25/25/1 1/1/1
f 1/1/1 2/2/1 5/5/1
f 2/2/1 3/3/1 5/5/1
f 3/3/1 4/4/1 5/5/1
f 5/5/1 6/6/1 7/7/1
f 7/7/1 8/8/1 5/5/1
f 8/8/1 9/9/1 5/5/1
f 9/9/1 10/10/1 13/13/1
f 10/10/1 11/11/1 13/13/1
f 11/11/1 12/12/1 13/13/1
f 13/13/1 14/14/1 15/15/1
f 15/15/1 16/16/1 13/13/1
f 16/16/1 17/17/1 13/13/1
f 17/17/1 18/18/1 21/21/1
f 18/18/1 19/19/1 21/21/1
f 19/19/1 20/20/1 21/21/1
f 21/21/1 22/22/1 23/23/1
f 23/23/1 24/24/1 21/21/1
f 24/24/1 25/25/1 21/21/1
f 25/25/1 26/26/1 29/29/1
f 26/26/1 27/27/1 29/29/1
f 27/27/1 28/28/1 29/29/1
f 29/29/1 30/30/1 31/31/1
f 31/31/1 32/32/1 29/29/1
f 32/32/1 1/1/1 29/29/1
f 1/1/1 5/5/1 9/9/1
f 9/9/1 13/13/1 17/17/1
f 17/17/1 21/21/1 25/25/1
f 25/25/1 29/29/1 1/1/1
f 1/1/1 9/9/1 17/17/1
