# Blender 3.5.0
# www.blender.org
mtllib body.mtl
o body
v -0.227246 0.000000 0.115164
v -0.246458 -0.110423 0.227246
v -0.115164 0.000000 0.227246
v -0.230097 -0.016384 0.170176
v -0.210615 0.000000 0.170176
v -0.216353 -0.012951 0.195559
v -0.220490 -0.056333 0.227246
v -0.237028 -0.056225 0.210615
v -0.219576 -0.031264 0.214092
v -0.170176 0.000000 0.210615
v -0.172905 -0.016312 0.227246
v -0.197759 -0.012916 0.214092
v -0.115164 -0.000000 -0.227246
v -0.246458 -0.110423 -0.227246
v -0.227246 -0.000000 -0.115164
v -0.172905 -0.016312 -0.227246
v -0.170176 -0.000000 -0.210615
v -0.197759 -0.012916 -0.214092
v -0.237028 -0.056225 -0.210615
v -0.220490 -0.056333 -0.227246
v -0.219576 -0.031264 -0.214092
v -0.210615 -0.000000 -0.170176
v -0.230097 -0.016384 -0.170176
v -0.216353 -0.012951 -0.195559
v -0.364998 -0.791733 0.115164
v -0.252916 -0.791733 0.227246
v -0.345786 -0.681310 0.227246
v -0.348367 -0.791733 0.170176
v -0.362147 -0.775349 0.170176
v -0.349599 -0.778782 0.195560
v -0.305219 -0.775244 0.227246
v -0.307928 -0.791733 0.210615
v -0.331118 -0.778730 0.214112
v -0.355216 -0.735508 0.210616
v -0.338506 -0.735665 0.227246
v -0.346380 -0.760584 0.214112
v 0.246458 -0.110423 0.227246
v 0.227246 0.000000 0.115164
v 0.115164 0.000000 0.227246
v 0.237028 -0.056225 0.210615
v 0.220490 -0.056333 0.227246
v 0.219576 -0.031264 0.214092
v 0.210615 0.000000 0.170176
v 0.230097 -0.016384 0.170176
v 0.216353 -0.012951 0.195559
v 0.172905 -0.016312 0.227246
v 0.170176 0.000000 0.210615
v 0.197759 -0.012916 0.214092
v 0.246458 -0.110423 -0.227246
v 0.115164 -0.000000 -0.227246
v 0.227246 -0.000000 -0.115164
v 0.220490 -0.056333 -0.227246
v 0.237028 -0.056225 -0.210615
v 0.219576 -0.031264 -0.214092
v 0.170176 -0.000000 -0.210615
v 0.172905 -0.016312 -0.227246
v 0.197759 -0.012916 -0.214092
v 0.230097 -0.016384 -0.170176
v 0.210615 -0.000000 -0.170176
v 0.216353 -0.012951 -0.195559
v 0.252916 -0.791733 0.227246
v 0.364998 -0.791733 0.115164
v 0.345786 -0.681310 0.227246
v 0.307928 -0.791733 0.210615
v 0.305219 -0.775244 0.227246
v 0.331118 -0.778730 0.214112
v 0.362147 -0.775349 0.170176
v 0.348367 -0.791733 0.170176
v 0.349599 -0.778782 0.195560
v 0.338506 -0.735665 0.227246
v 0.355216 -0.735508 0.210616
v 0.346380 -0.760584 0.214112
v 0.364998 -0.791733 -0.115164
v 0.252916 -0.791733 -0.227246
v 0.345786 -0.681310 -0.227246
v 0.348367 -0.791733 -0.170176
v 0.362147 -0.775349 -0.170176
v 0.349599 -0.778782 -0.195559
v 0.305219 -0.775244 -0.227246
v 0.307928 -0.791733 -0.210615
v 0.331118 -0.778730 -0.214112
v 0.355216 -0.735508 -0.210615
v 0.338506 -0.735665 -0.227246
v 0.346380 -0.760584 -0.214112
v -0.252916 -0.791733 -0.227246
v -0.364998 -0.791733 -0.115164
v -0.345786 -0.681310 -0.227246
v -0.307928 -0.791733 -0.210615
v -0.305219 -0.775244 -0.227246
v -0.331118 -0.778730 -0.214112
v -0.362147 -0.775349 -0.170176
v -0.348367 -0.791733 -0.170176
v -0.349599 -0.778782 -0.195559
v -0.338506 -0.735665 -0.227246
v -0.355216 -0.735508 -0.210615
v -0.346380 -0.760584 -0.214112
vn -0.0000 -0.0000 -1.0000
vn -0.0000 -0.0000 1.0000
vn -0.0000 1.0000 -0.0000
vn 0.9852 0.1714 -0.0000
vn -0.0000 -1.0000 -0.0000
vn -0.6318 0.7512 0.1910
vn -0.7874 0.5014 0.3585
vn -0.6703 0.3218 0.6687
vn -0.3717 0.4420 0.8164
vn -0.2021 0.7155 0.6687
vn -0.3585 0.8620 0.3585
vn -0.5411 0.6433 0.5416
vn -0.2021 0.7155 -0.6687
vn -0.3717 0.4420 -0.8164
vn -0.6703 0.3218 -0.6687
vn -0.7878 0.5009 -0.3585
vn -0.6318 0.7512 -0.1910
vn -0.3590 0.8617 -0.3585
vn -0.5411 0.6433 -0.5416
vn -0.7456 -0.6271 0.2254
vn -0.4009 -0.8238 0.4009
vn -0.2132 -0.6762 0.7052
vn -0.3914 -0.3292 0.8593
vn -0.7027 -0.0941 0.7052
vn -0.8798 -0.2540 0.4018
vn -0.6081 -0.5114 0.6072
vn 0.6703 0.3218 0.6687
vn 0.7878 0.5009 0.3585
vn 0.6318 0.7512 0.1910
vn 0.3590 0.8617 0.3585
vn 0.2021 0.7155 0.6687
vn 0.3717 0.4420 0.8164
vn 0.5411 0.6433 0.5416
vn 0.6703 0.3218 -0.6687
vn 0.3717 0.4420 -0.8164
vn 0.2021 0.7155 -0.6687
vn 0.3585 0.8620 -0.3585
vn 0.6318 0.7512 -0.1910
vn 0.7874 0.5014 -0.3585
vn 0.5411 0.6433 -0.5416
vn 0.2132 -0.6762 0.7052
vn 0.4010 -0.8232 0.4018
vn 0.7456 -0.6271 0.2254
vn 0.8803 -0.2537 0.4009
vn 0.7027 -0.0941 0.7052
vn 0.3914 -0.3292 0.8593
vn 0.6081 -0.5114 0.6072
vn 0.7456 -0.6271 -0.2254
vn 0.4009 -0.8238 -0.4009
vn 0.2132 -0.6762 -0.7052
vn 0.3914 -0.3292 -0.8593
vn 0.7027 -0.0941 -0.7052
vn 0.8798 -0.2540 -0.4018
vn 0.6081 -0.5114 -0.6072
vn -0.2132 -0.6762 -0.7052
vn -0.4010 -0.8232 -0.4018
vn -0.7456 -0.6271 -0.2254
vn -0.8803 -0.2537 -0.4009
vn -0.7027 -0.0941 -0.7052
vn -0.3914 -0.3292 -0.8593
vn -0.6081 -0.5114 -0.6072
vn -0.9852 0.1714 -0.0000
vn -0.6252 0.7433 0.2380
vn -0.7878 0.5009 0.3585
vn -0.6579 0.3686 0.6567
vn -0.2503 0.7114 0.6567
vn -0.3590 0.8617 0.3585
vn -0.2503 0.7114 -0.6567
vn -0.6579 0.3686 -0.6567
vn -0.7874 0.5014 -0.3585
vn -0.6252 0.7433 -0.2380
vn -0.3585 0.8620 -0.3585
vn -0.7348 -0.6180 0.2797
vn -0.4010 -0.8232 0.4018
vn -0.2659 -0.6625 0.7002
vn -0.6983 -0.1484 0.7002
vn -0.8803 -0.2537 0.4009
vn 0.6579 0.3686 0.6567
vn 0.7874 0.5014 0.3585
vn 0.6252 0.7433 0.2380
vn 0.3585 0.8620 0.3585
vn 0.2503 0.7114 0.6567
vn 0.6579 0.3686 -0.6567
vn 0.2503 0.7114 -0.6567
vn 0.3590 0.8617 -0.3585
vn 0.6252 0.7433 -0.2380
vn 0.7878 0.5009 -0.3585
vn 0.2659 -0.6625 0.7002
vn 0.4009 -0.8238 0.4009
vn 0.7348 -0.6180 0.2797
vn 0.8798 -0.2540 0.4018
vn 0.6983 -0.1484 0.7002
vn 0.7348 -0.6180 -0.2797
vn 0.4010 -0.8232 -0.4018
vn 0.2659 -0.6625 -0.7002
vn 0.6983 -0.1484 -0.7002
vn 0.8803 -0.2537 -0.4009
vn -0.2659 -0.6625 -0.7002
vn -0.4009 -0.8238 -0.4009
vn -0.7348 -0.6180 -0.2797
vn -0.8798 -0.2540 -0.4018
vn -0.6983 -0.1484 -0.7002
vt 1.000000 0.623304
vt 0.438347 0.875516
vt 0.059824 0.374389
vt 0.500000 0.814071
vt 0.132044 0.434957
vt 0.938347 0.684957
vt 0.468608 0.866399
vt 0.468608 0.877818
vt 0.990852 0.653565
vt 0.482570 0.870129
vt 0.994008 0.667527
vt 0.500000 0.846461
vt 0.074108 0.404058
vt 0.490852 0.844230
vt 0.074611 0.417263
vt 0.492764 0.859933
vt 0.968608 0.675809
vt 0.100283 0.426009
vt 0.970109 0.684957
vt 0.492764 0.872721
vt 0.086611 0.427327
vt 0.983780 0.677721
vt 0.522827 0.000000
vt 0.938347 0.434957
vt 0.450607 0.060568
vt 0.250000 0.814071
vt 1.000000 0.496609
vt 0.311653 0.875516
vt 0.491066 0.008947
vt 0.970109 0.434957
vt 0.968608 0.444105
vt 0.257236 0.872721
vt 0.477394 0.007629
vt 0.983780 0.442192
vt 0.259148 0.844230
vt 0.464891 0.030899
vt 0.250000 0.846461
vt 0.465394 0.017693
vt 0.257236 0.859933
vt 0.281392 0.877818
vt 0.990852 0.466349
vt 0.281392 0.866399
vt 0.994008 0.452386
vt 0.267430 0.870129
vt 0.688347 0.836502
vt 0.438347 0.434957
vt 0.056272 0.000689
vt 0.750000 0.774849
vt 0.005187 0.061256
vt 0.500000 0.496402
vt 0.718608 0.827354
vt 0.718608 0.834934
vt 0.468608 0.444074
vt 0.003090 0.006480
vt 0.732570 0.828031
vt 0.482570 0.443983
vt 0.027501 0.009733
vt 0.740852 0.805110
vt 0.026011 0.000000
vt 0.742775 0.817865
vt 0.013255 0.007277
vt 0.000000 0.030840
vt 0.490852 0.466243
vt 0.009191 0.031442
vt 0.492776 0.454116
vt 0.004860 0.017230
vt 0.330960 0.374389
vt 0.250000 0.498703
vt 0.750000 0.623304
vt 0.188347 0.437258
vt 0.258739 0.434957
vt 0.811652 0.684957
vt 0.240852 0.468544
vt 0.250000 0.466313
vt 0.316675 0.404058
vt 0.242764 0.452841
vt 0.316173 0.417263
vt 0.218608 0.434957
vt 0.759148 0.653565
vt 0.218608 0.446375
vt 0.755992 0.667527
vt 0.232570 0.442646
vt 0.290500 0.426009
vt 0.779891 0.684957
vt 0.781392 0.675809
vt 0.242764 0.440053
vt 0.766220 0.677721
vt 0.304172 0.427327
vt 0.721743 0.060568
vt 0.000000 0.498703
vt 0.649522 0.000000
vt 0.811653 0.434957
vt 0.750000 0.496609
vt 0.061653 0.437258
vt 0.000000 0.466313
vt 0.707458 0.030899
vt 0.009148 0.468544
vt 0.706956 0.017694
vt 0.007236 0.452841
vt 0.781392 0.444104
vt 0.681283 0.008947
vt 0.779891 0.434957
vt 0.007236 0.440053
vt 0.694955 0.007629
vt 0.766220 0.442192
vt 0.031392 0.446375
vt 0.759148 0.466349
vt 0.031392 0.434957
vt 0.755992 0.452386
vt 0.017430 0.442646
vt 0.334511 0.000689
vt 0.750000 0.496609
vt 0.188347 0.877818
vt 0.688347 0.434957
vt 0.385596 0.061256
vt 0.250000 0.816373
vt 0.364772 0.000000
vt 0.740852 0.466349
vt 0.363282 0.009733
vt 0.742776 0.453593
vt 0.377528 0.007277
vt 0.218608 0.868701
vt 0.718608 0.436525
vt 0.718608 0.444104
vt 0.387693 0.006480
vt 0.732570 0.443427
vt 0.232570 0.868792
vt 0.381592 0.031442
vt 0.240852 0.846531
vt 0.390783 0.030840
vt 0.242776 0.858658
vt 0.385923 0.017230
vt 0.061653 0.877818
vt 0.561653 0.434957
vt 0.725294 0.434268
vt 0.500000 0.496609
vt 0.776379 0.373700
vt 0.000000 0.816373
vt 0.531392 0.444104
vt 0.531392 0.436525
vt 0.031392 0.868701
vt 0.778476 0.428476
vt 0.517430 0.443427
vt 0.017430 0.868792
vt 0.754065 0.425223
vt 0.509148 0.466349
vt 0.755555 0.434957
vt 0.507224 0.453593
vt 0.768311 0.427679
vt 0.781566 0.404117
vt 0.009148 0.846531
vt 0.772375 0.403514
vt 0.007224 0.858658
vt 0.776706 0.417726
vt 0.447055 0.434268
vt 0.500000 0.774849
vt 0.561653 0.836502
vt 0.311653 0.434957
vt 0.395970 0.373700
vt 0.250000 0.496402
vt 0.416794 0.434957
vt 0.509148 0.805110
vt 0.418284 0.425223
vt 0.507224 0.817865
vt 0.404038 0.427679
vt 0.531392 0.834934
vt 0.281392 0.444074
vt 0.531392 0.827354
vt 0.393873 0.428476
vt 0.517430 0.828031
vt 0.267430 0.443983
vt 0.399974 0.403514
vt 0.390783 0.404117
vt 0.259148 0.466243
vt 0.257224 0.454116
vt 0.395643 0.417726
s 0
usemtl Material.002
f 14/25/1 13/23/1 49/89/1
f 37/67/2 39/71/2 2/3/2
f 50/92/3 15/27/3 3/6/3
f 49/90/4 51/94/4 37/68/4
f 74/136/5 73/134/5 61/112/5
f 4/7/6 5/8/6 1/2/6
f 4/7/7 9/16/7 6/10/7
f 7/12/8 8/14/8 2/4/8
f 7/13/9 12/21/9 9/15/9
f 10/17/10 11/19/10 3/6/10
f 5/9/11 12/22/11 10/17/11
f 6/10/12 9/16/12 12/20/12
f 16/30/13 17/31/13 13/24/13
f 20/36/14 18/33/14 16/29/14
f 19/35/15 20/37/15 14/26/15
f 23/42/16 21/39/16 19/35/16
f 22/40/17 23/42/17 15/28/17
f 22/41/18 18/34/18 24/43/18
f 18/32/19 21/39/19 24/44/19
f 28/51/20 29/52/20 25/45/20
f 32/58/21 30/55/21 28/51/21
f 31/57/22 32/59/22 26/47/22
f 31/57/23 36/66/23 33/61/23
f 34/62/24 35/64/24 27/49/24
f 34/63/25 30/56/25 36/65/25
f 30/54/26 33/61/26 36/66/26
f 40/73/27 41/74/27 37/68/27
f 44/80/28 42/76/28 40/73/28
f 43/78/29 44/80/29 38/70/29
f 43/79/30 48/87/30 45/81/30
f 46/84/31 47/85/31 39/72/31
f 41/75/32 48/88/32 46/83/32
f 42/76/33 45/82/33 48/86/33
f 52/95/34 53/97/34 49/90/34
f 52/96/35 57/104/35 54/98/35
f 55/100/36 56/102/36 50/92/36
f 59/107/37 57/105/37 55/100/37
f 58/106/38 59/108/38 51/94/38
f 58/106/39 54/99/39 60/110/39
f 54/99/40 57/103/40 60/110/40
f 64/117/41 65/119/41 61/111/41
f 64/118/42 69/126/42 66/120/42
f 67/123/43 68/124/43 62/114/43
f 71/129/44 69/127/44 67/122/44
f 70/128/45 71/130/45 63/115/45
f 65/119/46 72/132/46 70/128/46
f 66/121/47 69/125/47 72/132/47
f 76/139/48 77/140/48 73/134/48
f 80/146/49 78/143/49 76/139/49
f 79/145/50 80/147/50 74/135/50
f 79/145/51 84/154/51 81/149/51
f 82/150/52 83/152/52 75/137/52
f 82/151/53 78/144/53 84/153/53
f 78/142/54 81/149/54 84/154/54
f 88/161/55 89/163/55 85/155/55
f 88/162/56 93/170/56 90/164/56
f 91/166/57 92/168/57 86/157/57
f 95/174/58 93/171/58 91/167/58
f 94/172/59 95/173/59 87/159/59
f 89/163/60 96/176/60 94/172/60
f 90/165/61 93/169/61 96/176/61
f 87/160/62 86/158/62 27/50/62
f 49/89/1 75/137/1 87/159/1
f 75/137/1 83/152/1 74/135/1
f 83/152/1 79/145/1 74/135/1
f 74/135/1 85/155/1 87/159/1
f 85/155/1 89/163/1 87/159/1
f 89/163/1 94/172/1 87/159/1
f 87/159/1 14/25/1 49/89/1
f 14/25/1 20/36/1 13/23/1
f 20/36/1 16/29/1 13/23/1
f 13/23/1 50/91/1 49/89/1
f 50/91/1 56/101/1 49/89/1
f 56/101/1 52/96/1 49/89/1
f 75/137/1 74/135/1 87/159/1
f 2/3/2 27/49/2 63/115/2
f 27/49/2 35/64/2 26/47/2
f 35/64/2 31/57/2 26/47/2
f 26/47/2 61/111/2 63/115/2
f 61/111/2 65/119/2 63/115/2
f 65/119/2 70/128/2 63/115/2
f 63/115/2 37/67/2 2/3/2
f 37/67/2 41/75/2 39/71/2
f 41/75/2 46/83/2 39/71/2
f 39/71/2 3/5/2 2/3/2
f 3/5/2 11/18/2 2/3/2
f 11/18/2 7/13/2 2/3/2
f 27/49/2 26/47/2 63/115/2
f 3/6/3 39/72/3 38/69/3
f 39/72/3 47/85/3 38/69/3
f 47/85/3 43/79/3 38/69/3
f 38/69/3 51/93/3 50/92/3
f 51/93/3 59/107/3 50/92/3
f 59/107/3 55/100/3 50/92/3
f 50/92/3 13/24/3 15/27/3
f 13/24/3 17/31/3 15/27/3
f 17/31/3 22/41/3 15/27/3
f 15/27/3 1/1/3 3/6/3
f 1/1/3 5/9/3 3/6/3
f 5/9/3 10/17/3 3/6/3
f 3/6/3 38/69/3 50/92/3
f 37/68/4 63/116/4 75/138/4
f 63/116/4 71/129/4 62/113/4
f 71/129/4 67/122/4 62/113/4
f 62/113/4 73/133/4 75/138/4
f 73/133/4 77/141/4 75/138/4
f 77/141/4 82/151/4 75/138/4
f 75/138/4 49/90/4 37/68/4
f 49/90/4 53/97/4 51/94/4
f 53/97/4 58/106/4 51/94/4
f 51/94/4 38/70/4 37/68/4
f 38/70/4 44/80/4 37/68/4
f 44/80/4 40/73/4 37/68/4
f 63/116/4 62/113/4 75/138/4
f 61/112/5 26/48/5 85/156/5
f 26/48/5 32/58/5 25/45/5
f 32/58/5 28/51/5 25/45/5
f 25/45/5 86/157/5 85/156/5
f 86/157/5 92/168/5 85/156/5
f 92/168/5 88/162/5 85/156/5
f 85/156/5 74/136/5 61/112/5
f 74/136/5 80/146/5 73/134/5
f 80/146/5 76/139/5 73/134/5
f 73/134/5 62/114/5 61/112/5
f 62/114/5 68/124/5 61/112/5
f 68/124/5 64/118/5 61/112/5
f 26/48/5 25/45/5 85/156/5
f 4/7/63 6/10/63 5/8/63
f 4/7/64 8/14/64 9/16/64
f 7/12/65 9/16/65 8/14/65
f 7/13/9 11/18/9 12/21/9
f 10/17/66 12/22/66 11/19/66
f 5/9/67 6/11/67 12/22/67
f 16/30/68 18/34/68 17/31/68
f 20/36/14 21/38/14 18/33/14
f 19/35/69 21/39/69 20/37/69
f 23/42/70 24/44/70 21/39/70
f 22/40/71 24/44/71 23/42/71
f 22/41/72 17/31/72 18/34/72
f 28/51/73 30/55/73 29/52/73
f 32/58/74 33/60/74 30/55/74
f 31/57/75 33/61/75 32/59/75
f 31/57/23 35/64/23 36/66/23
f 34/62/76 36/66/76 35/64/76
f 34/63/77 29/53/77 30/56/77
f 40/73/78 42/76/78 41/74/78
f 44/80/79 45/82/79 42/76/79
f 43/78/80 45/82/80 44/80/80
f 43/79/81 47/85/81 48/87/81
f 46/84/82 48/87/82 47/85/82
f 41/75/32 42/77/32 48/88/32
f 52/95/83 54/99/83 53/97/83
f 52/96/35 56/101/35 57/104/35
f 55/100/84 57/105/84 56/102/84
f 59/107/85 60/109/85 57/105/85
f 58/106/86 60/110/86 59/108/86
f 58/106/87 53/97/87 54/99/87
f 64/117/88 66/121/88 65/119/88
f 64/118/89 68/124/89 69/126/89
f 67/123/90 69/126/90 68/124/90
f 71/129/91 72/131/91 69/127/91
f 70/128/92 72/132/92 71/130/92
f 65/119/46 66/121/46 72/132/46
f 76/139/93 78/143/93 77/140/93
f 80/146/94 81/148/94 78/143/94
f 79/145/95 81/149/95 80/147/95
f 79/145/51 83/152/51 84/154/51
f 82/150/96 84/154/96 83/152/96
f 82/151/97 77/141/97 78/144/97
f 88/161/98 90/165/98 89/163/98
f 88/162/99 92/168/99 93/170/99
f 91/166/100 93/170/100 92/168/100
f 95/174/101 96/175/101 93/171/101
f 94/172/102 96/176/102 95/173/102
f 89/163/60 90/165/60 96/176/60
f 27/50/62 2/4/62 14/26/62
f 2/4/62 8/14/62 1/2/62
f 8/14/62 4/7/62 1/2/62
f 1/2/62 15/28/62 14/26/62
f 15/28/62 23/42/62 14/26/62
f 23/42/62 19/35/62 14/26/62
f 14/26/62 87/160/62 27/50/62
f 87/160/62 95/174/62 86/158/62
f 95/174/62 91/167/62 86/158/62
f 86/158/62 25/46/62 27/50/62
f 25/46/62 29/53/62 27/50/62
f 29/53/62 34/63/62 27/50/62
f 2/4/62 1/2/62 14/26/62
