# Blender 3.5.0
# www.blender.org
mtllib body.mtl
o body
v -0.227246 -0.000000 0.227246
v -0.227246 0.000000 -0.227246
v -0.364998 -0.791733 0.227246
v 0.227246 -0.000000 0.227246
v 0.227246 0.000000 -0.227246
v 0.364998 -0.791733 0.227246
v 0.364998 -0.791733 -0.227246
v -0.364998 -0.791733 -0.227246
vn -0.0000 1.0000 -0.0000
vn -0.9852 0.1714 -0.0000
vn -0.0000 -0.0000 1.0000
vn 0.9852 0.1714 -0.0000
vn -0.0000 -1.0000 -0.0000
vn -0.0000 -0.0000 -1.0000
vt 0.000000 0.000000
vt 0.000000 0.000000
vt 0.000000 0.000000
vt 0.000000 0.000000
vt 0.000000 0.000000
vt 0.000000 0.000000
vt 0.000000 0.000000
vt 0.000000 0.000000
s 0
usemtl Material.003
f 4/4/1 5/5/1 2/2/1 1/1/1
f 1/1/2 2/2/2 8/8/2 3/3/2
f 3/3/3 6/6/3 4/4/3 1/1/3
f 6/6/4 7/7/4 5/5/4 4/4/4
f 3/3/5 8/8/5 7/7/5 6/6/5
f 7/7/6 8/8/6 2/2/6 5/5/6
