# Blender 3.5.0
# www.blender.org
mtllib armL.mtl
o armR
v 0.594498 -0.405433 -0.144976
v 0.594498 -0.405433 0.144976
v 0.482954 0.144976 -0.144976
v 0.482954 0.144976 0.144976
v 0.384773 -0.405433 -0.144976
v 0.384773 -0.405433 0.144976
v 0.273230 0.144976 -0.144976
v 0.273230 0.144976 0.144976
vn 0.9801 0.1986 -0.0000
vn -0.0000 1.0000 -0.0000
vn -0.9801 -0.1986 -0.0000
vn -0.0000 -1.0000 -0.0000
vn -0.0000 -0.0000 -1.0000
vn -0.0000 -0.0000 1.0000
vt 0.292586 0.000000
vt 0.792586 0.000000
vt 0.211630 0.566700
vt 0.000000 0.000000
vt 0.211630 0.859286
vt 0.585172 0.608733
vt 0.211630 0.566700
vt 0.292586 0.566700
vt 0.792587 0.566700
vt 0.000000 0.566700
vt 0.211630 0.859286
vt 0.585173 0.042033
vt 0.000000 0.566700
vt 0.585172 0.566699
vt 1.000000 0.042033
vt 0.292586 0.566699
vt 0.000000 0.859286
vt 0.792586 0.566699
vt 0.585172 0.000000
vt 0.423259 0.566700
vt 1.000000 0.608733
vt 0.792586 0.000000
vt 0.423259 0.859286
vt 0.292586 0.000000
s 0
usemtl Material.006
f 2/4/1 1/1/1 3/8/1
f 4/11/2 3/7/2 7/20/2
f 8/24/3 7/19/3 5/14/3
f 6/17/4 5/13/4 1/3/4
f 3/9/5 1/2/5 5/15/5
f 4/12/6 8/22/6 6/18/6
f 2/4/1 3/8/1 4/10/1
f 4/11/2 7/20/2 8/23/2
f 8/24/3 5/14/3 6/16/3
f 6/17/4 1/3/4 2/5/4
f 3/9/5 5/15/5 7/21/5
f 4/12/6 6/18/6 2/6/6
