# Blender 3.5.0
# www.blender.org
mtllib player_Weapon.mtl
o 立方体
v -0.043630 1.111456 0.043630
v -0.043630 1.984057 0.043630
v -0.043630 1.111456 -0.043630
v -0.043630 1.984057 -0.043630
v 0.043630 1.111456 0.043630
v 0.043630 1.984057 0.043630
v 0.043630 1.111456 -0.043630
v 0.043630 1.984057 -0.043630
v -0.043630 2.132209 0.043630
v -0.043630 2.132209 -0.043630
v 0.043630 2.132209 0.043630
v 0.043630 2.132209 -0.043630
v 0.043630 1.984057 0.480668
v -0.043630 1.984057 0.480668
v 0.043630 2.132209 0.480668
v -0.043630 2.132209 0.480668
v 0.043630 2.132209 0.262149
v 0.043630 1.984057 0.262149
v -0.043630 1.984057 0.262149
v -0.043630 2.132209 0.262149
v -0.043630 4.173268 0.043630
v -0.043630 4.173268 -0.043630
v 0.043630 4.173268 -0.043630
v 0.043630 4.173268 0.043630
v -0.043630 4.173268 0.262149
v 0.043630 4.173268 0.262149
v -0.043630 5.055665 0.000000
v 0.043630 5.055665 0.000000
v -0.043630 1.111456 -0.043630
v -0.043630 1.984057 -0.043630
v -0.043630 1.111456 0.043630
v -0.043630 1.984057 0.043630
v 0.043630 1.111456 -0.043630
v 0.043630 1.984057 -0.043630
v 0.043630 1.111456 0.043630
v 0.043630 1.984057 0.043630
v -0.043630 2.132209 -0.043630
v -0.043630 2.132209 0.043630
v 0.043630 2.132209 -0.043630
v 0.043630 2.132209 0.043630
v 0.043630 1.984057 -0.480668
v -0.043630 1.984057 -0.480668
v 0.043630 2.132209 -0.480668
v -0.043630 2.132209 -0.480668
v 0.043630 2.132209 -0.262149
v 0.043630 1.984057 -0.262149
v -0.043630 1.984057 -0.262149
v -0.043630 2.132209 -0.262149
v -0.043630 4.173268 -0.043630
v -0.043630 4.173268 0.043630
v 0.043630 4.173268 0.043630
v 0.043630 4.173268 -0.043630
v -0.043630 4.173268 -0.262149
v 0.043630 4.173268 -0.262149
vn -1.0000 -0.0000 -0.0000
vn -0.0000 -0.0000 -1.0000
vn 1.0000 -0.0000 -0.0000
vn -0.0000 -0.0000 1.0000
vn -0.0000 -1.0000 -0.0000
vn -0.0000 1.0000 -0.0000
vn -0.0000 0.2848 0.9586
vn -0.0000 0.2848 -0.9586
vt 0.656452 1.000000
vt 0.713451 0.601287
vt 0.798949 0.815395
vt 0.770450 0.744026
vt 0.713451 0.886044
vt 0.656452 0.715005
vt 0.849098 0.999163
vt 0.798949 0.843894
vt 0.684951 1.000000
vt 0.684951 0.715005
vt 0.849098 0.714407
vt 0.741950 0.601287
vt 0.313976 0.000000
vt 0.770450 0.815395
vt 0.313976 0.284995
vt 0.741950 0.886044
vt 0.741950 0.744026
vt 0.342476 0.000000
vt 0.877598 0.999163
vt 0.770450 0.843894
vt 0.877598 0.714407
vt 0.342476 0.284995
vt 0.656452 0.666618
vt 0.684951 0.666618
vt 0.849098 0.666060
vt 0.313976 0.333382
vt 0.877598 0.666060
vt 0.342476 0.333382
vt 0.171238 0.284995
vt 0.827449 0.801025
vt 0.741950 0.601287
vt 0.798949 0.801025
vt 0.513714 0.715005
vt 0.770450 0.601287
vt 0.171238 0.333382
vt 0.827449 0.849371
vt 0.798949 0.744026
vt 0.798949 0.849371
vt 0.513714 0.666618
vt 0.770450 0.744026
vt 0.798949 0.815395
vt 0.242607 0.333382
vt 0.934597 0.000000
vt 0.741950 0.672657
vt 0.242607 0.284995
vt 0.770450 0.672657
vt 0.585083 0.715005
vt 0.906098 0.000000
vt 0.770450 0.815395
vt 0.585083 0.666618
vt 0.798949 0.772525
vt 0.656452 0.000000
vt 0.849099 0.000000
vt 0.798949 0.801025
vt 0.684951 0.000000
vt 0.827449 0.801025
vt 0.877598 0.000000
vt 0.342476 1.000000
vt 0.827449 0.772525
vt 0.313976 1.000000
vt 0.684951 0.552521
vt 0.798949 0.701156
vt 0.906098 0.666060
vt 0.585083 0.000000
vt 0.684951 0.048766
vt 0.242607 1.000000
vt 0.827449 0.701156
vt 0.934597 0.666060
vt 0.849098 0.300644
vt 0.906098 0.957515
vt 0.934597 0.000000
vt 0.849098 0.300644
vt 0.934597 0.957515
vt 0.963097 0.000000
vt 0.485214 0.000000
vt 0.684951 0.886044
vt 0.798949 0.872394
vt 0.798949 0.601287
vt 0.684951 0.601287
vt 0.485214 0.284995
vt 0.877598 0.000000
vt 0.798949 0.843894
vt 0.513713 0.000000
vt 0.513713 0.284995
vt 0.877598 0.284757
vt 0.713451 0.886044
vt 0.142738 1.000000
vt 0.770450 0.872394
vt 0.142738 0.715005
vt 0.713451 0.601287
vt 0.770450 0.601287
vt 0.171238 1.000000
vt 0.906098 0.000000
vt 0.770450 0.843894
vt 0.906098 0.284757
vt 0.171238 0.715005
vt 0.485214 0.333382
vt 0.513713 0.333382
vt 0.877598 0.333103
vt 0.142738 0.666618
vt 0.906098 0.333103
vt 0.171238 0.666618
vt 0.000000 0.715005
vt 0.770450 0.863742
vt 0.770450 0.744026
vt 0.741950 0.863742
vt 0.342476 0.284995
vt 0.798949 0.744026
vt 0.000000 0.666618
vt 0.770450 0.815395
vt 0.342476 0.333382
vt 0.741950 0.815395
vt 0.770450 0.744026
vt 0.071369 0.666618
vt 0.963097 0.957515
vt 0.770450 0.672657
vt 0.071369 0.715005
vt 0.798949 0.672657
vt 0.413845 0.284995
vt 0.934597 0.957515
vt 0.741950 0.744026
vt 0.413845 0.333382
vt 0.798949 0.629787
vt 0.485214 1.000000
vt 0.877598 0.999163
vt 0.798949 0.601287
vt 0.513714 1.000000
vt 0.827449 0.601287
vt 0.906097 0.999163
vt 0.171238 0.000000
vt 0.827449 0.629787
vt 0.142738 0.000000
vt 0.849098 0.601287
vt 0.798949 0.701156
vt 0.934597 0.291454
vt 0.413845 1.000000
vt 0.849099 0.000000
vt 0.071369 0.000000
vt 0.827449 0.701156
vt 0.963097 0.291454
s 0
usemtl マテリアル.001
f 2/6/1 3/9/1 1/1/1
f 4/11/2 7/19/2 3/7/2
f 8/22/3 5/13/3 7/18/3
f 6/16/4 1/2/4 5/12/4
f 7/20/5 1/3/5 3/8/5
f 2/6/1 10/24/1 4/10/1
f 10/25/2 23/57/2 12/27/2
f 17/42/3 13/29/3 18/45/3
f 4/11/2 12/27/2 8/21/2
f 8/22/3 11/26/3 6/15/3
f 13/30/4 16/38/4 14/32/4
f 19/47/1 16/39/1 20/50/1
f 20/49/6 15/37/6 17/41/6
f 18/44/5 14/34/5 19/46/5
f 6/17/5 19/46/5 2/4/5
f 11/26/3 26/66/3 17/42/3
f 2/6/1 20/50/1 9/23/1
f 11/26/3 18/45/3 6/15/3
f 22/54/6 24/59/6 23/56/6
f 21/51/6 26/67/6 24/59/6
f 17/43/4 25/63/4 20/48/4
f 20/50/1 21/52/1 9/23/1
f 12/28/3 24/60/3 11/26/3
f 9/23/1 22/55/1 10/24/1
f 26/68/7 27/70/7 25/63/7
f 31/83/1 30/80/1 29/75/1
f 35/93/4 32/85/4 31/81/4
f 33/87/3 36/96/3 35/92/3
f 29/76/2 34/90/2 33/86/2
f 29/77/5 35/94/5 31/82/5
f 38/98/1 30/80/1 32/84/1
f 51/129/4 38/99/4 40/101/4
f 41/103/3 45/114/3 46/117/3
f 40/101/4 32/85/4 36/95/4
f 39/100/3 36/96/3 34/89/3
f 44/112/2 41/104/2 42/106/2
f 44/111/1 47/119/1 48/122/1
f 43/110/6 48/121/6 45/113/6
f 42/108/5 46/116/5 47/118/5
f 47/118/5 34/91/5 30/78/5
f 54/138/3 39/100/3 45/114/3
f 48/122/1 30/80/1 37/97/1
f 46/117/3 39/100/3 34/89/3
f 52/131/6 50/126/6 51/128/6
f 54/139/6 49/123/6 52/131/6
f 53/135/2 45/115/2 48/120/2
f 49/124/1 48/122/1 37/97/1
f 52/132/3 40/102/3 39/100/3
f 50/127/1 37/97/1 38/98/1
f 27/71/8 54/140/8 53/135/8
f 25/61/1 27/69/1 53/133/1
f 28/72/3 26/65/3 54/137/3
f 2/6/1 4/10/1 3/9/1
f 4/11/2 8/21/2 7/19/2
f 8/22/3 6/15/3 5/13/3
f 6/16/4 2/5/4 1/2/4
f 7/20/5 5/14/5 1/3/5
f 2/6/1 9/23/1 10/24/1
f 10/25/2 22/53/2 23/57/2
f 17/42/3 15/35/3 13/29/3
f 4/11/2 10/25/2 12/27/2
f 8/22/3 12/28/3 11/26/3
f 13/30/4 15/36/4 16/38/4
f 19/47/1 14/33/1 16/39/1
f 20/49/6 16/40/6 15/37/6
f 18/44/5 13/31/5 14/34/5
f 6/17/5 18/44/5 19/46/5
f 11/26/3 24/60/3 26/66/3
f 2/6/1 19/47/1 20/50/1
f 11/26/3 17/42/3 18/45/3
f 22/54/6 21/51/6 24/59/6
f 21/51/6 25/62/6 26/67/6
f 17/43/4 26/68/4 25/63/4
f 20/50/1 25/64/1 21/52/1
f 12/28/3 23/58/3 24/60/3
f 9/23/1 21/52/1 22/55/1
f 26/68/7 28/73/7 27/70/7
f 31/83/1 32/84/1 30/80/1
f 35/93/4 36/95/4 32/85/4
f 33/87/3 34/89/3 36/96/3
f 29/76/2 30/79/2 34/90/2
f 29/77/5 33/88/5 35/94/5
f 38/98/1 37/97/1 30/80/1
f 51/129/4 50/125/4 38/99/4
f 41/103/3 43/109/3 45/114/3
f 40/101/4 38/99/4 32/85/4
f 39/100/3 40/102/3 36/96/3
f 44/112/2 43/110/2 41/104/2
f 44/111/1 42/107/1 47/119/1
f 43/110/6 44/112/6 48/121/6
f 42/108/5 41/105/5 46/116/5
f 47/118/5 46/116/5 34/91/5
f 54/138/3 52/132/3 39/100/3
f 48/122/1 47/119/1 30/80/1
f 46/117/3 45/114/3 39/100/3
f 52/131/6 49/123/6 50/126/6
f 54/139/6 53/134/6 49/123/6
f 53/135/2 54/140/2 45/115/2
f 49/124/1 53/136/1 48/122/1
f 52/132/3 51/130/3 40/102/3
f 50/127/1 49/124/1 37/97/1
f 27/71/8 28/74/8 54/140/8
